<svg width="580" height="400" xmlns="http://www.w3.org/2000/svg">
 <!-- Created with SVG Editor - http://github.com/mzalive/SVG Editor/ -->

 <g>
  <title>background</title>
  <rect fill="#fff" id="canvas_background" height="402" width="582" y="-1" x="-1"/>
  <g display="none" overflow="visible" y="0" x="0" height="100%" width="100%" id="canvasGrid">
   <rect fill="url(#gridpattern)" stroke-width="0" y="0" x="0" height="100%" width="100%"/>
  </g>
 </g>
 <g>
  <title>Layer 1</title>
  <g stroke="null" id="svg_8">
   <path stroke="null" id="svg_4" fill="#2196F3" d="m232.035094,177.274038l-0.008042,0c-6.49782,0 -11.765239,4.964166 -11.765239,11.088055l0,0.007222c0,6.123889 5.267419,11.088333 11.765239,11.088333l0.008042,0c6.49782,0 11.765182,-4.964444 11.765182,-11.088333l0,-0.007222c0,-6.123889 -5.267362,-11.088055 -11.765182,-11.088055z"/>
   <path stroke="null" id="svg_5" fill="#2196F3" d="m318.876047,173.729316c-0.018382,-8.505777 -3.61124,-16.658277 -9.992161,-22.673416c-6.380921,-6.015166 -15.03032,-9.403111 -24.055405,-9.422416l0,0c-9.02767,0.015444 -17.680803,3.401694 -24.06517,9.417277c-6.384367,6.015555 -9.979236,14.170249 -9.997618,22.678554l0,46.90472c0,0 68.1026,-7.148611 68.110355,-46.897498l0,-0.007222z"/>
   <path stroke="null" id="svg_6" fill="#2196F3" d="m196.413667,236.028757c0.016372,5.918333 2.517672,11.589999 6.957289,15.775555c4.439646,4.185555 10.456685,6.545 16.736303,6.562222c6.278181,-0.017222 12.294043,-2.375555 16.733631,-6.559444c4.439301,-4.184166 6.941578,-9.853888 6.95996,-15.77111l0,-32.636943c0,0 -47.387183,4.977778 -47.387183,32.629721zm23.693591,5.8475c-1.227155,0 -2.426737,-0.342778 -3.447064,-0.985556c-1.020327,-0.6425 -1.815587,-1.555555 -2.285195,-2.624167c-0.469608,-1.068611 -0.592481,-2.244167 -0.353082,-3.378611c0.239428,-1.134444 0.83033,-2.176389 1.698056,-2.994167c0.867726,-0.817778 1.973272,-1.374722 3.176817,-1.600278c1.203574,-0.225556 2.451094,-0.109722 3.584845,0.332778c1.133722,0.4425 2.102722,1.191944 2.784501,2.153611c0.681865,0.961667 1.045775,2.092222 1.045775,3.248889c0.002872,0.769722 -0.155387,1.5325 -0.465587,2.244444c-0.310487,0.711944 -0.767112,1.359167 -1.343566,1.904722c-0.576454,0.545278 -1.26145,0.977778 -2.015752,1.273055c-0.754302,0.295278 -1.563004,0.447222 -2.379748,0.447222l0,-0.021944z"/>
   <path stroke="null" id="svg_7" fill="#2196F3" d="m268.475218,238.247924l-4.846869,0l0,4.842222l-2.524393,0l0,-11.848888l7.977013,0l0,1.9775l-5.45262,0l0,3.06l4.846869,0l0,1.969167zm12.133974,-0.813611c0,1.166389 -0.213119,2.189167 -0.639356,3.068055c-0.426524,0.878889 -1.03802,1.556944 -1.834486,2.034444c-0.791009,0.4775 -1.699779,0.716111 -2.72631,0.716111c-1.015329,0 -1.921514,-0.236111 -2.71798,-0.708056c-0.796753,-0.471944 -1.413706,-1.144722 -1.851145,-2.018055c-0.437726,-0.878889 -0.659174,-1.888055 -0.664919,-3.0275l0,-0.585833c0,-1.166389 0.215991,-2.191944 0.647973,-3.076111c0.437439,-0.89 1.051806,-1.570833 1.842815,-2.042778c0.796466,-0.4775 1.705236,-0.716111 2.72631,-0.716111c1.021074,0 1.926971,0.238611 2.71798,0.716111c0.796466,0.471944 1.410834,1.152778 1.842815,2.042778c0.437439,0.884167 0.656302,1.906944 0.656302,3.068055l0,0.528889zm-2.557998,-0.537222c0,-1.242222 -0.230065,-2.186389 -0.689907,-2.831944c-0.460129,-0.645556 -1.116431,-0.968333 -1.969193,-0.968333c-0.847017,0 -1.500447,0.32 -1.960576,0.960278c-0.460129,0.634722 -0.692779,1.567778 -0.698524,2.799444l0,0.577778c0,1.209722 0.230065,2.148333 0.690194,2.815833c0.459842,0.667222 1.121889,1.000833 1.985852,1.000833c0.847017,0 1.497862,-0.32 1.952247,-0.960278c0.454385,-0.645556 0.684162,-1.584167 0.689907,-2.815833l0,-0.577778zm10.745544,3.084444c0,-0.461111 -0.168312,-0.813889 -0.504936,-1.058056c-0.336624,-0.249444 -0.942375,-0.51 -1.81754,-0.781111c-0.875165,-0.276667 -1.567944,-0.548056 -2.078337,-0.813889c-1.391303,-0.726944 -2.086954,-1.706389 -2.086954,-2.937778c0,-0.640278 0.185258,-1.21 0.555487,-1.709167c0.375686,-0.504444 0.911642,-0.897778 1.607006,-1.18c0.701396,-0.281944 1.48666,-0.423056 2.356368,-0.423056c0.874878,0 1.654685,0.154722 2.339135,0.463889c0.68445,0.303889 1.214661,0.735 1.590347,1.293889c0.381431,0.558889 0.572146,1.193611 0.572146,1.904444l-2.524393,0c0,-0.542778 -0.176641,-0.963056 -0.529924,-1.261389c-0.35357,-0.303889 -0.849889,-0.455833 -1.489533,-0.455833c-0.616953,0 -1.096613,0.1275 -1.438981,0.3825c-0.342081,0.249444 -0.513265,0.580556 -0.513265,0.992778c0,0.385278 0.199332,0.708056 0.597421,0.968333c0.404121,0.260556 0.995798,0.504722 1.775606,0.7325c1.436109,0.417778 2.482458,0.935833 3.13876,1.554444c0.656302,0.618333 0.984309,1.388889 0.984309,2.311111c0,1.025556 -0.400962,1.831111 -1.203172,2.416944c-0.802211,0.580556 -1.882165,0.870833 -3.239575,0.870833c-0.942662,0 -1.800881,-0.165556 -2.574944,-0.496389c-0.774063,-0.336389 -1.366027,-0.794722 -1.775606,-1.375278c-0.403834,-0.580556 -0.605751,-1.253333 -0.605751,-2.018333l2.532722,0c0,1.3075 0.807955,1.961389 2.423578,1.961389c0.600294,0 1.068465,-0.116667 1.405089,-0.35c0.336624,-0.238611 0.504936,-0.569722 0.504936,-0.992778zm13.471854,-6.762777l-3.752841,0l0,9.871388l-2.524393,0l0,-9.871388l-3.702577,0l0,-1.9775l9.979811,0l0,1.9775zm8.818573,4.736389l-4.846869,0l0,3.173889l5.688429,0l0,1.961111l-8.212822,0l0,-11.848888l8.196163,0l0,1.9775l-5.67177,0l0,2.823889l4.846869,0l0,1.9125zm6.857996,0.7975l-2.011127,0l0,4.3375l-2.524393,0l0,-11.848888l4.552466,0c1.447311,0 2.563742,0.311944 3.349007,0.935833c0.785552,0.623889 1.178184,1.505555 1.178184,2.645c0,0.808333 -0.182386,1.483611 -0.547158,2.026111c-0.359027,0.537222 -0.905898,0.965833 -1.640611,1.285833l2.650483,4.842222l0,0.113889l-2.709651,0l-2.2972,-4.3375zm-2.011127,-1.9775l2.036403,0c0.633899,0 1.124761,-0.154722 1.472586,-0.463889c0.347826,-0.314722 0.521882,-0.746111 0.521882,-1.293889c0,-0.558889 -0.16544,-0.998333 -0.496607,-1.318333c-0.325422,-0.320278 -0.827486,-0.480278 -1.506191,-0.480278l-2.028074,0l0,3.556389zm15.29801,2.140278l0,4.174722l-2.524393,0l0,-11.848888l4.779659,0c0.919972,0 1.727639,0.162778 2.423291,0.488333c0.701396,0.325556 1.239937,0.789444 1.615623,1.391389c0.375973,0.596944 0.563817,1.277778 0.563817,2.042778c0,1.161111 -0.412163,2.077778 -1.236777,2.750555c-0.819157,0.6675 -1.955119,1.001111 -3.408175,1.001111l-2.213044,0zm0,-1.9775l2.255266,0c0.667504,0 1.175312,-0.151944 1.523137,-0.455833c0.353283,-0.303889 0.529924,-0.737778 0.529924,-1.301944c0,-0.580556 -0.176641,-1.05 -0.529924,-1.408055c-0.35357,-0.358056 -0.84156,-0.5425 -1.464257,-0.553333l-2.314146,0l0,3.719166zm15.971258,1.017222l-4.846869,0l0,3.173889l5.688142,0l0,1.961111l-8.212535,0l0,-11.848888l8.195876,0l0,1.9775l-5.671483,0l0,2.823889l4.846869,0l0,1.9125zm11.713194,-4.736389l-3.752841,0l0,9.871388l-2.52468,0l0,-9.871388l-3.70229,0l0,-1.9775l9.979811,0l0,1.9775zm8.818573,4.736389l-4.846869,0l0,3.173889l5.688429,0l0,1.961111l-8.212822,0l0,-11.848888l8.195876,0l0,1.9775l-5.671483,0l0,2.823889l4.846869,0l0,1.9125zm6.857996,0.7975l-2.011127,0l0,4.3375l-2.524393,0l0,-11.848888l4.552466,0c1.447311,0 2.563455,0.311944 3.349007,0.935833c0.785265,0.623889 1.177897,1.505555 1.177897,2.645c0,0.808333 -0.182099,1.483611 -0.54687,2.026111c-0.359027,0.537222 -0.905898,0.965833 -1.640898,1.285833l2.650771,4.842222l0,0.113889l-2.709651,0l-2.2972,-4.3375zm-2.011127,-1.9775l2.036403,0c0.633899,0 1.124761,-0.154722 1.472586,-0.463889c0.347826,-0.314722 0.521595,-0.746111 0.521595,-1.293889c0,-0.558889 -0.16544,-0.998333 -0.496319,-1.318333c-0.325422,-0.320278 -0.827486,-0.480278 -1.506191,-0.480278l-2.028074,0l0,3.556389zm14.835009,3.206389c0,-0.461111 -0.168025,-0.813889 -0.504649,-1.058056c-0.336624,-0.249444 -0.942662,-0.51 -1.81754,-0.781111c-0.875165,-0.276667 -1.567944,-0.548056 -2.078625,-0.813889c-1.391303,-0.726944 -2.086667,-1.706389 -2.086667,-2.937778c0,-0.640278 0.184971,-1.21 0.5552,-1.709167c0.375973,-0.504444 0.911642,-0.897778 1.607294,-1.18c0.701109,-0.281944 1.48666,-0.423056 2.356081,-0.423056c0.875165,0 1.654972,0.154722 2.339422,0.463889c0.684162,0.303889 1.214374,0.735 1.590347,1.293889c0.381431,0.558889 0.572146,1.193611 0.572146,1.904444l-2.524393,0c0,-0.542778 -0.176641,-0.963056 -0.530212,-1.261389c-0.353283,-0.303889 -0.849889,-0.455833 -1.489533,-0.455833c-0.616953,0 -1.096613,0.1275 -1.438694,0.3825c-0.342368,0.249444 -0.513265,0.580556 -0.513265,0.992778c0,0.385278 0.199045,0.708056 0.597421,0.968333c0.403834,0.260556 0.995511,0.504722 1.775318,0.7325c1.436109,0.417778 2.482458,0.935833 3.13876,1.554444c0.656302,0.618333 0.984597,1.388889 0.984597,2.311111c0,1.025556 -0.401249,1.831111 -1.20346,2.416944c-0.802211,0.580556 -1.881878,0.870833 -3.239575,0.870833c-0.942375,0 -1.800594,-0.165556 -2.574944,-0.496389c-0.774063,-0.336389 -1.366027,-0.794722 -1.775318,-1.375278c-0.404121,-0.580556 -0.606038,-1.253333 -0.606038,-2.018333l2.53301,0c0,1.3075 0.807668,1.961389 2.423291,1.961389c0.600294,0 1.068753,-0.116667 1.405377,-0.35c0.336624,-0.238611 0.504649,-0.569722 0.504649,-0.992778z"/>
  </g>
 </g>
</svg>